<svg width="138" height="47" viewBox="0 0 138 47" fill="none" xmlns="http://www.w3.org/2000/svg">
<path fill-rule="evenodd" clip-rule="evenodd" d="M1 46.168L7.35 31.7109L14.2829 26.6055L20.1465 34.625L27.3677 22.8438L30.9541 28.542L35.2274 22.8438L37.5125 31.1006L44.6562 26.6055L48.2281 19.2383L51.4031 26.6055L57.7345 19.2383L63.0551 16.0332L65.2937 22.8438L71.1855 18.1758L75.9598 25.4606V11.084L86.2788 19.2383L92.9347 11.084L98.6312 14.2354L105.53 9L112.057 9.69727L116.135 2L121.873 19.2383V14.2354L137 2.5V46.168H1Z" fill="url(#paint0_linear_10_707)"/>
<path d="M1 46.084L7.35 31.627L14.2829 26.5215L20.1465 34.625L27.3677 22.7598L30.9541 28.542L35.2274 22.7598L37.5125 31.0166L44.6562 26.5215L48.2281 19.1543L51.4031 26.5215L57.7345 19.1543L63.0551 15.9492L65.2937 22.7598L71.1855 18.1758L75.9598 25.3766V11L86.6113 19.1543L92.9347 11L98.6312 14.1514L105.53 9L112.057 9.69727L116.135 2L121.873 19.1543V14.1514L137 2.5" stroke="#6A80EA" stroke-linecap="square"/>
<defs>
<linearGradient id="paint0_linear_10_707" x1="1" y1="2" x2="1" y2="46.168" gradientUnits="userSpaceOnUse">
<stop stop-color="#4B84ED" stop-opacity="0.359839"/>
<stop offset="1" stop-color="#4B84ED" stop-opacity="0.01"/>
</linearGradient>
</defs>
</svg>
