<svg width="546" height="524" viewBox="0 0 546 524" fill="none" xmlns="http://www.w3.org/2000/svg">
<g clip-path="url(#clip0_15_803)">
<path d="M491.304 507.168C493.37 507.297 494.512 504.73 492.949 503.234L492.794 502.616C492.814 502.567 492.835 502.517 492.855 502.468C494.945 497.486 502.025 497.52 504.097 502.509C505.935 506.938 508.276 511.373 508.852 516.055C509.111 518.122 508.995 520.228 508.536 522.256C512.844 512.845 515.111 502.569 515.111 492.235C515.111 489.639 514.969 487.042 514.678 484.452C514.439 482.334 514.11 480.228 513.684 478.142C511.378 466.865 506.385 456.124 499.184 447.152C495.722 445.26 492.835 442.302 491.091 438.756C490.464 437.477 489.973 436.101 489.741 434.7C490.135 434.751 491.226 428.751 490.929 428.383C491.478 427.55 492.461 427.135 493.061 426.322C496.043 422.279 500.152 422.985 502.297 428.48C506.879 430.792 506.923 434.628 504.112 438.317C502.323 440.663 502.077 443.839 500.508 446.351C500.669 446.558 500.837 446.758 500.999 446.965C503.96 450.763 506.521 454.845 508.68 459.134C508.069 454.367 508.97 448.625 510.506 444.924C512.254 440.707 515.531 437.155 518.416 433.509C521.882 429.13 528.99 431.041 529.6 436.592C529.606 436.646 529.612 436.7 529.618 436.753C529.189 436.995 528.769 437.252 528.359 437.523C526.02 439.071 526.828 442.697 529.6 443.125L529.663 443.135C529.508 444.678 529.243 446.209 528.856 447.714C532.557 462.03 524.566 467.244 513.154 467.478C512.902 467.607 512.657 467.737 512.405 467.859C513.561 471.115 514.485 474.454 515.169 477.838C515.783 480.829 516.209 483.851 516.448 486.887C516.745 490.717 516.719 494.567 516.396 498.39L516.416 498.255C517.236 494.044 519.523 490.11 522.842 487.384C527.788 483.322 534.775 481.826 540.111 478.56C542.679 476.988 545.97 479.02 545.522 481.997L545.5 482.14C544.706 482.463 543.931 482.837 543.181 483.257C542.753 483.499 542.333 483.756 541.923 484.027C539.583 485.574 540.392 489.201 543.164 489.629L543.227 489.639C543.272 489.645 543.311 489.652 543.356 489.658C541.993 492.894 540.094 495.897 537.717 498.487C535.403 510.984 525.461 512.17 514.827 508.531H514.82C513.658 513.595 511.959 518.542 509.776 523.257H491.756C491.691 523.057 491.633 522.85 491.575 522.65C493.241 522.753 494.921 522.656 496.561 522.353C495.224 520.712 493.887 519.059 492.55 517.418C492.518 517.386 492.492 517.354 492.466 517.321C491.788 516.482 491.104 515.649 490.425 514.809L490.425 514.808C490.383 512.23 490.692 509.661 491.304 507.168Z" fill="#F2F2F2"/>
<path d="M159.753 522.311C159.753 522.971 160.283 523.501 160.943 523.501H544.233C544.893 523.501 545.423 522.971 545.423 522.311C545.423 521.651 544.893 521.121 544.233 521.121H160.943C160.283 521.121 159.753 521.651 159.753 522.311Z" fill="#CCCCCC"/>
<path d="M217.914 522.994H41.4889C19.9769 522.994 2.47552 505.492 2.47552 483.98V104.831C2.47552 83.3188 19.9769 65.8174 41.4889 65.8174H217.914C239.425 65.8174 256.927 83.3188 256.927 104.831V483.98C256.927 505.492 239.425 522.994 217.914 522.994Z" fill="#3F3D56"/>
<path d="M256.927 205.281C256.016 205.281 255.276 206.021 255.276 206.931V259.746C255.276 260.656 256.016 261.396 256.927 261.396C257.837 261.396 258.577 260.656 258.577 259.746V206.931C258.577 206.021 257.837 205.281 256.927 205.281Z" fill="#3F3D56"/>
<path d="M253.213 104.831V483.973C253.213 502.698 238.64 518.014 220.213 519.202H220.204C219.932 519.219 219.66 519.235 219.379 519.244C218.892 519.268 218.405 519.277 217.91 519.277C217.91 519.277 216.095 519.145 212.777 518.897C209.427 518.649 204.55 518.278 198.468 517.791C196.644 517.651 194.721 517.494 192.691 517.329C188.648 516.999 184.208 516.636 179.446 516.223C177.548 516.066 175.584 515.893 173.579 515.72C163.33 514.837 151.851 513.805 139.745 512.633C137.698 512.444 135.635 512.246 133.555 512.039C133.011 511.982 132.458 511.932 131.905 511.874C123.273 511.024 6.18939 488.397 6.18939 483.973V104.831C6.18939 85.331 21.9925 69.5278 41.4926 69.5278H62.5689C65.9359 69.5278 68.6426 72.1521 68.9314 75.5107C68.9562 75.7336 68.9809 75.9563 69.0222 76.1792C69.6329 79.5544 72.7275 81.9062 76.1604 81.9062H183.242C186.675 81.9062 189.77 79.5544 190.381 76.1792C190.422 75.9563 190.447 75.7336 190.471 75.5107C190.76 72.1521 193.467 69.5278 196.834 69.5278H217.91C237.41 69.5278 253.213 85.331 253.213 104.831Z" fill="white"/>
<path d="M1.65045 165.67C0.7402 165.67 0 166.41 0 167.32V180.524C0 181.434 0.74021 182.174 1.65045 182.174C2.56069 182.174 3.3009 181.434 3.3009 180.524V167.32C3.3009 166.41 2.56069 165.67 1.65045 165.67Z" fill="#3F3D56"/>
<path d="M1.65045 205.281C0.7402 205.281 0 206.021 0 206.931V232.513C0 233.424 0.74021 234.164 1.65045 234.164C2.56069 234.164 3.3009 233.423 3.3009 232.513V206.931C3.3009 206.021 2.56069 205.281 1.65045 205.281Z" fill="#3F3D56"/>
<path d="M1.65045 241.591C0.7402 241.591 0 242.331 0 243.241V268.823C0 269.734 0.74021 270.474 1.65045 270.474C2.56069 270.474 3.3009 269.734 3.3009 268.823V243.241C3.3009 242.331 2.56069 241.591 1.65045 241.591Z" fill="#3F3D56"/>
<path d="M61.9944 75.3076H30.431C30.2597 75.3076 30.1208 75.4465 30.1208 75.6178V79.1235C30.1208 79.2949 30.2597 79.4338 30.431 79.4338H61.9944C62.1658 79.4338 62.3046 79.2949 62.3046 79.1235V75.6178C62.3046 75.4465 62.1658 75.3076 61.9944 75.3076Z" fill="#E6E6E6"/>
<path d="M202.049 79.4337C203.872 79.4337 205.35 77.9559 205.35 76.1328C205.35 74.3098 203.872 72.8319 202.049 72.8319C200.226 72.8319 198.748 74.3098 198.748 76.1328C198.748 77.9559 200.226 79.4337 202.049 79.4337Z" fill="#E6E6E6"/>
<path d="M211.127 79.4337C212.95 79.4337 214.428 77.9559 214.428 76.1328C214.428 74.3098 212.95 72.8319 211.127 72.8319C209.304 72.8319 207.826 74.3098 207.826 76.1328C207.826 77.9559 209.304 79.4337 211.127 79.4337Z" fill="#E6E6E6"/>
<path d="M220.204 79.4337C222.027 79.4337 223.505 77.9559 223.505 76.1328C223.505 74.3098 222.027 72.8319 220.204 72.8319C218.381 72.8319 216.903 74.3098 216.903 76.1328C216.903 77.9559 218.381 79.4337 220.204 79.4337Z" fill="#E6E6E6"/>
<path d="M199.289 298.516H59.2886C57.083 298.516 55.2886 296.721 55.2886 294.516C55.2886 292.31 57.083 290.516 59.2886 290.516H199.289C201.494 290.516 203.289 292.31 203.289 294.516C203.289 296.721 201.494 298.516 199.289 298.516Z" fill="#E6E6E6"/>
<path d="M130 454C162.033 454 188 428.033 188 396C188 363.967 162.033 338 130 338C97.9675 338 72 363.967 72 396C72 428.033 97.9675 454 130 454Z" fill="#6A80EA"/>
<path d="M437.086 0H151.126C140.636 0 132.106 8.52997 132.106 19.02V214.98C132.106 225.47 140.636 234 151.126 234H437.086C447.576 234 456.106 225.47 456.106 214.98V19.02C456.106 8.52997 447.576 0 437.086 0Z" fill="white"/>
<path d="M292.791 116.516C310.464 116.516 324.791 102.189 324.791 84.5157C324.791 66.8426 310.464 52.5157 292.791 52.5157C275.118 52.5157 260.791 66.8426 260.791 84.5157C260.791 102.189 275.118 116.516 292.791 116.516Z" fill="#6A80EA"/>
<path d="M437.086 0H151.126C140.636 0 132.106 8.52997 132.106 19.02V214.98C132.106 225.47 140.636 234 151.126 234H437.086C447.576 234 456.106 225.47 456.106 214.98V19.02C456.106 8.52997 447.576 0 437.086 0ZM454.106 214.98C454.106 224.37 446.476 232 437.086 232H151.126C141.736 232 134.106 224.37 134.106 214.98V19.02C134.106 9.63001 141.736 2 151.126 2H437.086C446.476 2 454.106 9.63 454.106 19.02V214.98Z" fill="#3F3D56"/>
<path d="M261.136 19.35H233.076C231.666 19.35 230.516 20.5 230.516 21.91C230.516 23.33 231.666 24.48 233.076 24.48H261.136C262.546 24.48 263.696 23.33 263.696 21.91C263.696 20.5 262.546 19.35 261.136 19.35Z" fill="#E6E6E6"/>
<path d="M308.136 19.35H280.076C278.666 19.35 277.516 20.5 277.516 21.91C277.516 23.33 278.666 24.48 280.076 24.48H308.136C309.546 24.48 310.696 23.33 310.696 21.91C310.696 20.5 309.546 19.35 308.136 19.35Z" fill="#E6E6E6"/>
<path d="M355.136 19.35H327.076C325.666 19.35 324.516 20.5 324.516 21.91C324.516 23.33 325.666 24.48 327.076 24.48H355.136C356.546 24.48 357.696 23.33 357.696 21.91C357.696 20.5 356.546 19.35 355.136 19.35Z" fill="#E6E6E6"/>
<path d="M401.416 134.516H186.796C177.866 134.516 170.606 141.776 170.606 150.706V165.326C170.606 174.256 177.866 181.516 186.796 181.516H401.416C410.346 181.516 417.606 174.256 417.606 165.326V150.706C417.606 141.776 410.346 134.516 401.416 134.516Z" fill="#6A80EA"/>
<path d="M73.1793 211.492L64.9493 207.593C68.3249 212.304 71.2335 219.661 72.7907 225.516C75.4273 220.062 79.6774 213.39 83.8845 209.404L75.1863 211.641C80.5461 185.374 100.705 166.516 123.791 166.516V164.516C99.6776 164.516 78.6517 184.163 73.1793 211.492Z" fill="#3F3D56"/>
<path d="M111.058 251.516H59.0584C56.8528 251.516 55.0584 249.721 55.0584 247.516C55.0584 245.31 56.8528 243.516 59.0584 243.516H111.058C113.264 243.516 115.058 245.31 115.058 247.516C115.058 249.721 113.264 251.516 111.058 251.516Z" fill="#E6E6E6"/>
<path d="M456.979 238.488L456.454 279.327L446.293 315.732L438.17 312.702L441.776 279.333L441.302 234.176L456.979 238.488Z" fill="#FFB6B6"/>
<path d="M446.258 321.603C447.211 316.368 445.464 311.665 442.356 311.099C439.248 310.533 435.955 314.318 435.002 319.553C434.049 324.788 435.796 329.491 438.904 330.056C442.012 330.622 445.305 326.837 446.258 321.603Z" fill="#FFB6B6"/>
<path d="M444.648 189.861C444.648 189.861 462.055 190.101 462.04 199.348C462.032 204.569 460.911 251.971 457.791 280.768C455.384 302.974 450.791 308.768 450.791 308.768L439.791 283.768L444.648 189.861Z" fill="#E6E6E6"/>
<path d="M444.2 273.298H385.413C390.34 262.303 393.37 251.831 388.634 243.502L444.2 240.281C441.424 251.525 441.084 262.56 444.2 273.298Z" fill="#FFB6B6"/>
<path d="M436.953 175.856L413.599 174.245L403.935 186.325L399.036 187.216C391.692 188.551 386.463 195.105 386.791 202.562L388.696 245.874L444.517 249.945L457.891 193.542L441.784 187.13L436.953 175.856Z" fill="#E6E6E6"/>
<path d="M294.531 188.922C296.188 190.412 297.37 192.154 297.995 193.842L314.677 207.045L308.162 214.799L291.942 200.571C290.197 200.128 288.34 199.135 286.683 197.645C282.898 194.239 281.586 189.526 283.753 187.118C285.92 184.709 290.745 185.517 294.531 188.922Z" fill="#FFB6B6"/>
<path d="M412.467 200.037L348.551 243.196L302.734 211.312L309.613 198.852L345.673 219.809L378.928 194.274C390.77 183.151 405.612 185.307 412.467 200.037Z" fill="#E6E6E6"/>
<path d="M423.891 170.628C433.46 170.628 441.217 162.871 441.217 153.302C441.217 143.734 433.46 135.976 423.891 135.976C414.322 135.976 406.565 143.734 406.565 153.302C406.565 162.871 414.322 170.628 423.891 170.628Z" fill="#FFB6B6"/>
<path d="M447.441 149.046V152.406L427.901 146.906L413.251 149.976C413.081 147.746 412.421 145.556 411.321 143.616C412.086 146.727 412.172 149.134 411.361 150.376L409.391 150.786C409.071 149.916 408.451 149.156 407.641 148.696C407.561 148.646 407.461 148.606 407.371 148.636C407.231 148.686 407.221 148.866 407.221 149.006C407.241 149.746 407.261 150.486 407.291 151.226L401.631 152.406V149.046C396.201 136.828 410.513 126.255 424.541 126.146C430.871 126.096 436.591 128.706 440.741 132.846C444.881 136.996 447.441 142.716 447.441 149.046Z" fill="#2F2E41"/>
<path d="M458.433 188.444L456.957 188.322C457.063 187.839 457.168 187.363 457.264 186.88C458.081 182.831 456.281 177.676 456.149 173.785C455.454 177.896 456.642 182.953 455.413 186.856C455.276 187.29 449.937 190.088 449.791 190.516C443.881 188.355 437.728 181.45 430.759 185.483C426.638 187.868 421.935 186.822 417.256 185.73C416.098 185.46 415.937 179.74 414.791 179.516C412.738 179.113 409.723 184.313 407.791 184.516L415.791 153.516C415.791 136.652 414.229 118.958 435.591 124.921C440.964 126.421 446.281 127.597 450.246 132.031C454.212 136.472 457.035 142.677 458.036 149.744C458.639 154.007 462.403 168.483 458.433 188.444Z" fill="#2F2E41"/>
<path d="M444.638 500.18L435.102 500.405L429.786 457.561L443.859 457.228L444.638 500.18Z" fill="#FFB7B7"/>
<path d="M411.919 520.076C411.919 521.687 413.063 522.993 414.473 522.993H433.402C433.402 522.993 435.265 515.506 442.86 512.283L443.384 522.993H453.149L451.966 505.772C451.966 505.772 454.578 496.558 449.153 491.848C443.728 487.138 448.122 487.794 448.122 487.794L445.988 477.135L431.232 478.87L431.124 495.602L423.963 512.21L413.46 517.399C412.525 517.861 411.919 518.913 411.919 520.076Z" fill="#2F2E41"/>
<path d="M415.624 493.198L406.457 495.836L390.443 455.743L403.972 451.85L415.624 493.198Z" fill="#FFB7B7"/>
<path d="M389.025 520.746C389.434 522.304 390.871 523.277 392.236 522.919L410.545 518.116C410.545 518.116 410.447 510.4 416.976 505.356L420.201 515.583L429.646 513.105L424.131 496.747C424.131 496.747 424.32 487.172 417.877 483.993C411.435 480.814 415.851 480.333 415.851 480.333L411.082 470.564L397.25 475.987L401.391 492.199L398.679 510.081L389.836 517.765C389.049 518.449 388.73 519.62 389.025 520.746Z" fill="#2F2E41"/>
<path d="M438.791 270.768L444.791 272.768C454.172 290.093 458.149 313.101 457.622 340.846L446.964 465.457H429.527L416.767 326.635L394.267 378.74L410.729 465.457L394.267 467.136L361.11 376.964L384.202 272.162L438.791 270.768Z" fill="#2F2E41"/>
<path d="M292.36 74.36C290.92 74.36 289.8 74.6667 289 75.28C288.227 75.8667 287.84 76.8667 287.84 78.28C287.84 78.92 287.973 79.4667 288.24 79.92C288.507 80.3733 288.84 80.76 289.24 81.08C289.667 81.4 290.147 81.6667 290.68 81.88C291.24 82.0667 291.8 82.2267 292.36 82.36V74.36ZM287.24 91.32C287.213 93.08 287.6 94.4667 288.4 95.48C289.2 96.4933 290.52 97.0267 292.36 97.08V87.4C291.267 87.1067 290.173 86.76 289.08 86.36C288.013 85.9333 287.04 85.4 286.16 84.76C285.307 84.0933 284.613 83.2667 284.08 82.28C283.547 81.2933 283.28 80.0667 283.28 78.6C283.28 77.32 283.52 76.2 284 75.24C284.507 74.2533 285.173 73.44 286 72.8C286.853 72.1333 287.827 71.6267 288.92 71.28C290.013 70.9333 291.16 70.76 292.36 70.76V67.64H294.08V70.76C295.28 70.76 296.413 70.92 297.48 71.24C298.547 71.56 299.467 72.04 300.24 72.68C301.04 73.32 301.667 74.1333 302.12 75.12C302.6 76.1067 302.84 77.2533 302.84 78.56H298.28C298.227 77.2 297.867 76.16 297.2 75.44C296.56 74.72 295.52 74.36 294.08 74.36V82.8C295.28 83.12 296.453 83.4933 297.6 83.92C298.747 84.3467 299.76 84.8933 300.64 85.56C301.52 86.2267 302.227 87.0533 302.76 88.04C303.293 89.0267 303.56 90.24 303.56 91.68C303.56 93.1733 303.307 94.48 302.8 95.6C302.32 96.6933 301.653 97.6133 300.8 98.36C299.947 99.08 298.947 99.6267 297.8 100C296.653 100.4 295.413 100.627 294.08 100.68V103.8H292.36V100.68C290.92 100.653 289.6 100.427 288.4 100C287.2 99.5733 286.173 98.9733 285.32 98.2C284.467 97.4 283.8 96.4267 283.32 95.28C282.867 94.1333 282.653 92.8133 282.68 91.32H287.24ZM294.08 97.08C295.52 96.9733 296.693 96.56 297.6 95.84C298.533 95.0933 299 93.92 299 92.32C299 91.5733 298.853 90.9467 298.56 90.44C298.293 89.9333 297.92 89.5067 297.44 89.16C296.987 88.8133 296.467 88.5333 295.88 88.32C295.293 88.1067 294.693 87.92 294.08 87.76V97.08Z" fill="white"/>
</g>
<path d="M127.52 382.412C126.98 382.412 126.314 382.484 125.522 382.628V396.722H122.39V383.492C120.23 384.608 118.682 386.282 117.746 388.514C116.846 390.71 116.396 393.446 116.396 396.722C116.396 399.386 116.882 401.78 117.854 403.904C118.826 405.992 120.23 407.648 122.066 408.872C123.902 410.096 126.098 410.708 128.654 410.708H141.398V416H112.238V410.924H117.53V410.708C115.838 409.772 114.416 408.476 113.264 406.82C112.148 405.164 111.32 403.364 110.78 401.42C110.24 399.44 109.97 397.514 109.97 395.642C109.97 392.942 110.474 390.404 111.482 388.028C112.49 385.616 113.93 383.546 115.802 381.818C117.71 380.09 119.906 378.884 122.39 378.2V372.26H125.522V377.552C126.314 377.48 126.98 377.444 127.52 377.444C127.952 377.444 128.636 377.48 129.572 377.552V372.26H132.704V378.2C135.26 378.92 137.474 380.198 139.346 382.034C141.254 383.834 142.694 386.012 143.666 388.568C144.674 391.124 145.178 393.842 145.178 396.722H138.752C138.752 393.446 138.284 390.71 137.348 388.514C136.412 386.282 134.864 384.608 132.704 383.492V396.722H129.572V382.628C128.924 382.484 128.24 382.412 127.52 382.412Z" fill="white"/>
<defs>
<clipPath id="clip0_15_803">
<rect width="545.563" height="523.501" fill="white"/>
</clipPath>
</defs>
</svg>
