<svg width="138" height="46" viewBox="0 0 138 46" fill="none" xmlns="http://www.w3.org/2000/svg">
<path fill-rule="evenodd" clip-rule="evenodd" d="M1 44.96L7.8 26.8887L15.2242 20.5068H21.6872L29.2363 15.8047L32.45 7.2915L37.6529 15.8047L40.1 26.1257L47.75 20.5068L51.575 11.2979L54.975 20.5068L61.7551 11.2979L67.4527 7.2915L69.85 15.8047L74.2368 19.0758H81.2719L86.0266 11.2979L91.696 7.2915L99.4498 1.10498L105.55 5.04419L110.484 7.2915L118.853 11.2979L122.279 7.2915L130.439 11.2979V5.04419L137 7.2915V43.605L1 44.96Z" fill="url(#paint0_linear_10_733)"/>
<path d="M1 44.855L7.8 26.7837L15.2242 20.4019H21.6872L29.2363 15.6997L32.45 7.18652L37.6529 15.6997L40.1 26.0208L47.75 20.4019L51.575 11.1929L54.975 20.4019L61.7551 11.1929L67.4527 7.18652L69.85 15.6997L74.2368 18.9708H81.2719L86.0266 11.1929L91.696 7.18652L99.4498 1L105.55 4.93921L110.484 7.18652L118.853 11.1929L122.279 7.18652L130.439 11.1929V4.93921L137 7.18652" stroke="#6A80EA" stroke-linecap="square"/>
<defs>
<linearGradient id="paint0_linear_10_733" x1="1" y1="1.10498" x2="1" y2="44.96" gradientUnits="userSpaceOnUse">
<stop stop-color="#4B84ED" stop-opacity="0.357108"/>
<stop offset="1" stop-color="#4B84ED" stop-opacity="0.01"/>
</linearGradient>
</defs>
</svg>
