<svg width="40" height="40" viewBox="0 0 40 40" fill="none" xmlns="http://www.w3.org/2000/svg">
<path d="M20 39.3C9.34091 39.3 0.700005 30.6591 0.700005 20C0.700005 9.34091 9.34091 0.7 20 0.7C30.6591 0.7 39.3 9.34091 39.3 20C39.3 30.6591 30.6591 39.3 20 39.3Z" fill="#6A80EA" stroke="#333333" stroke-width="1.4"/>
<rect width="24" height="24" transform="translate(32 8) rotate(90)" fill="#6A80EA"/>
<path d="M10.8236 23.0252L14.902 27.0588L14.902 24.0336L22.0393 24.0336L22.0393 22.0168L14.902 22.0168L14.902 18.9916M25.0981 21.0084L29.1765 16.9748L25.0981 12.9412L25.0981 15.9664L17.9608 15.9664L17.9608 17.9832L25.0981 17.9832L25.0981 21.0084Z" fill="#333333"/>
</svg>
