<svg width="44" height="44" viewBox="0 0 44 44" fill="none" xmlns="http://www.w3.org/2000/svg">
<rect width="44" height="44" rx="8" fill="#6A80EA"/>
<mask id="mask0_32_34" style="mask-type:alpha" maskUnits="userSpaceOnUse" x="6" y="6" width="32" height="32">
<rect x="6" y="6" width="32" height="32" fill="#D9D9D9"/>
</mask>
<g mask="url(#mask0_32_34)">
<path d="M20.1478 28.5859C19.3667 29.367 18.1004 29.367 17.3193 28.5859L12.0835 23.3501C11.5589 22.8255 11.5589 21.9748 12.0835 21.4501V21.4501C12.6082 20.9255 13.4589 20.9255 13.9835 21.4501L17.3193 24.7859C18.1004 25.567 19.3667 25.567 20.1478 24.7859L30.0169 14.9168C30.5415 14.3921 31.3922 14.3921 31.9169 14.9168V14.9168C32.4416 15.4415 32.4416 16.2921 31.9169 16.8168L20.1478 28.5859Z" fill="white"/>
</g>
</svg>
