<svg width="42" height="42" viewBox="0 0 42 42" fill="none" xmlns="http://www.w3.org/2000/svg">
<rect width="42" height="42" rx="10" fill="#1C233C"/>
<path fill-rule="evenodd" clip-rule="evenodd" d="M34 21C34 28.1684 28.1678 34 21 34C13.8322 34 8 28.1684 8 21C8 13.8316 13.8322 8 21 8C28.1678 8 34 13.8316 34 21ZM31.8333 21C31.8333 15.0266 26.9734 10.1667 21 10.1667C15.0266 10.1667 10.1667 15.0266 10.1667 21C10.1667 26.9734 15.0266 31.8333 21 31.8333C26.9734 31.8333 31.8333 26.9734 31.8333 21Z" fill="#6A80EA"/>
<path d="M20.7266 28.125V26.8203C18.75 26.6641 17.1875 25.5391 17.125 23.6797V23.6719L18.75 23.6641V23.6797C18.8828 24.5859 19.4688 25.2656 20.7266 25.3984V21.9844L20.4219 21.9062C18.4453 21.4453 17.375 20.5547 17.375 18.9766V18.9609C17.375 17.2188 18.7656 16.0625 20.7266 15.9062V14.5938H21.6484V15.9062C23.5859 16.0703 24.9844 17.2734 25.0547 19.0312V19.0391L23.4375 19.0469V19.0312C23.3281 18.0625 22.6406 17.4688 21.6484 17.3281V20.6016L22 20.6875C24.0547 21.1641 25.1797 22.0078 25.1797 23.6641V23.6797C25.1797 25.5859 23.625 26.6719 21.6484 26.8203V28.125H20.7266ZM19.0234 18.8516C19.0234 19.5469 19.4922 20.0703 20.7266 20.3828V17.3281C19.6094 17.4766 19.0234 18.125 19.0234 18.8359V18.8516ZM23.5234 23.8203C23.5234 23.0156 23.0859 22.5391 21.6484 22.1953V25.4062C22.9688 25.2969 23.5234 24.6641 23.5234 23.8359V23.8203Z" fill="white"/>
</svg>
