<svg width="42" height="42" viewBox="0 0 42 42" fill="none" xmlns="http://www.w3.org/2000/svg">
<rect width="42" height="42" rx="10" fill="#1C233C"/>
<path fill-rule="evenodd" clip-rule="evenodd" d="M34 21C34 28.1684 28.1678 34 21 34C13.8322 34 8 28.1684 8 21C8 13.8316 13.8322 8 21 8C28.1678 8 34 13.8316 34 21ZM31.8333 21C31.8333 15.0266 26.9734 10.1667 21 10.1667C15.0266 10.1667 10.1667 15.0266 10.1667 21C10.1667 26.9734 15.0266 31.8333 21 31.8333C26.9734 31.8333 31.8333 26.9734 31.8333 21Z" fill="#6A80EA"/>
<path d="M15.7578 22.9375V22.0156H17.2344C17.2109 21.8047 17.2031 21.5859 17.2031 21.3672V21.3516C17.2031 21.1328 17.2109 20.9141 17.2344 20.7031H15.7578V19.7812H17.375C18 17.1484 20.2422 15.8906 22.9531 15.8906C23.5312 15.8906 24.2656 15.9531 24.625 16.0625V17.5547C24.2578 17.4688 23.5625 17.4141 22.9844 17.4141C21.1562 17.4141 19.7344 18.1797 19.1953 19.7812H23.3984V20.7031H18.9922C18.9688 20.9141 18.9531 21.1406 18.9531 21.3672V21.3828C18.9531 21.6016 18.9688 21.8125 18.9922 22.0156H23.3984V22.9375H19.1875C19.7188 24.5547 21.1484 25.3125 23 25.3125C23.5625 25.3125 24.2734 25.2734 24.6328 25.1797V26.6719C24.2891 26.7891 23.5625 26.8359 22.9766 26.8359C20.2266 26.8359 18 25.5703 17.375 22.9375H15.7578Z" fill="white"/>
</svg>
